<svg width="119" height="63" viewBox="0 0 119 63" fill="none" xmlns="http://www.w3.org/2000/svg">
<path d="M0 26H101V63H0V26Z" fill="white"/>
<path d="M0 0H119V37H0V0Z" fill="white"/>
<path d="M94.4037 30.8C93.8437 30.8 93.3637 30.6 92.9637 30.2C92.5904 29.8 92.4037 29.2934 92.4037 28.68C92.4037 28.0667 92.5904 27.5734 92.9637 27.2C93.3637 26.8 93.8437 26.6 94.4037 26.6C94.9637 26.6 95.4304 26.8 95.8037 27.2C96.1771 27.5734 96.3637 28.0667 96.3637 28.68C96.3637 29.2934 96.1771 29.8 95.8037 30.2C95.4304 30.6 94.9637 30.8 94.4037 30.8ZM91.0437 55C90.6437 55 90.4437 54.8534 90.4437 54.56C90.4437 54.32 90.6171 54.16 90.9637 54.08L91.4437 54C92.1104 53.8934 92.5371 53.7334 92.7237 53.52C92.9104 53.28 93.0037 52.88 93.0037 52.32V38.88C93.0037 38.4 92.9237 38.08 92.7637 37.92C92.6304 37.7334 92.3771 37.6134 92.0037 37.56L91.1637 37.44C90.8171 37.4134 90.6437 37.2667 90.6437 37C90.6437 36.7867 90.8571 36.64 91.2837 36.56C92.1104 36.4267 92.7771 36.2134 93.2837 35.92C93.7904 35.6267 94.2837 35.2667 94.7637 34.84C95.0037 34.6 95.2037 34.48 95.3637 34.48C95.6037 34.48 95.7237 34.64 95.7237 34.96V52.32C95.7237 52.88 95.8037 53.28 95.9637 53.52C96.1237 53.76 96.4304 53.9067 96.8837 53.96L97.8837 54.08C98.1771 54.1334 98.3237 54.28 98.3237 54.52C98.3237 54.84 98.1237 55 97.7237 55H91.0437Z" fill="black"/>
<path d="M72.2547 55C71.8547 55 71.6547 54.8534 71.6547 54.56C71.6547 54.32 71.828 54.16 72.1747 54.08L72.6547 54C73.2147 53.8934 73.5747 53.7334 73.7347 53.52C73.9213 53.28 74.0147 52.88 74.0147 52.32V38.88C74.0147 38.4 73.9347 38.08 73.7747 37.92C73.6413 37.7334 73.388 37.6134 73.0147 37.56L72.1747 37.44C71.828 37.4134 71.6547 37.2667 71.6547 37C71.6547 36.7867 71.868 36.64 72.2947 36.56C73.1213 36.4267 73.748 36.2134 74.1747 35.92C74.628 35.6267 75.0947 35.2667 75.5747 34.84C75.8147 34.6 76.0147 34.48 76.1747 34.48C76.4147 34.48 76.5347 34.64 76.5347 34.96V36.76C76.5347 37 76.6147 37.16 76.7747 37.24C76.9613 37.2934 77.1613 37.2134 77.3747 37C78.4413 35.9867 79.3747 35.2934 80.1747 34.92C81.0013 34.5467 81.868 34.36 82.7747 34.36C83.9747 34.36 84.9347 34.7867 85.6547 35.64C86.3747 36.4667 86.7347 37.6934 86.7347 39.32V52.32C86.7347 52.88 86.8147 53.28 86.9747 53.52C87.1613 53.7334 87.5347 53.88 88.0947 53.96L88.9747 54.08C89.268 54.1334 89.4147 54.2934 89.4147 54.56C89.4147 54.8534 89.2547 55 88.9347 55H82.2147C81.8413 55 81.6547 54.8534 81.6547 54.56C81.6547 54.2934 81.8013 54.1334 82.0947 54.08L82.6547 54C83.2147 53.92 83.5747 53.76 83.7347 53.52C83.9213 53.28 84.0147 52.88 84.0147 52.32V39.76C84.0147 38.4534 83.7747 37.5334 83.2947 37C82.8147 36.4667 82.1347 36.2 81.2547 36.2C80.4013 36.2 79.628 36.4534 78.9347 36.96C78.268 37.44 77.7347 38.0934 77.3347 38.92C76.9347 39.72 76.7347 40.6134 76.7347 41.6V52.32C76.7347 52.88 76.8147 53.28 76.9747 53.52C77.1613 53.76 77.5347 53.9067 78.0947 53.96L79.1747 54.08C79.468 54.1334 79.6147 54.28 79.6147 54.52C79.6147 54.84 79.4147 55 79.0147 55H72.2547Z" fill="black"/>
<path d="M59.8781 55.36C58.7581 55.36 57.8381 55.0134 57.1181 54.32C56.3981 53.6 56.0381 52.6534 56.0381 51.48C56.0381 50.3334 56.3981 49.2534 57.1181 48.24C57.8381 47.2 58.8248 46.2667 60.0781 45.44C61.3315 44.6134 62.7581 43.9467 64.3581 43.44C64.7048 43.3334 64.8782 43.1067 64.8782 42.76V39.12C64.8782 37.84 64.6781 36.9334 64.2781 36.4C63.8781 35.84 63.3315 35.56 62.6381 35.56C61.9715 35.56 61.3581 35.8667 60.7981 36.48C60.2648 37.0667 59.8781 38.0667 59.6381 39.48C59.5048 40.3334 59.2115 40.96 58.7581 41.36C58.3315 41.7334 57.8915 41.92 57.4381 41.92C56.6915 41.92 56.3181 41.5467 56.3181 40.8C56.3181 40.0267 56.5315 39.2667 56.9581 38.52C57.4115 37.7467 57.9981 37.0534 58.7181 36.44C59.4381 35.8 60.2248 35.2934 61.0781 34.92C61.9315 34.5467 62.7848 34.36 63.6381 34.36C66.2781 34.36 67.5982 35.8934 67.5982 38.96V51.2C67.5982 52.32 67.8781 52.88 68.4381 52.88C68.7848 52.88 69.1048 52.6534 69.3981 52.2C69.6915 51.72 69.8382 50.92 69.8382 49.8C69.8382 49.3734 70.0115 49.16 70.3581 49.16C70.6781 49.16 70.8382 49.3867 70.8382 49.84C70.8382 51.7867 70.4915 53.2 69.7981 54.08C69.1315 54.9334 68.3715 55.36 67.5182 55.36C66.8781 55.36 66.3715 55.1067 65.9981 54.6C65.6248 54.0667 65.3715 53.44 65.2382 52.72C65.2115 52.4534 65.0915 52.32 64.8782 52.32C64.6915 52.2934 64.5048 52.4134 64.3181 52.68C63.6781 53.56 63.0248 54.2267 62.3581 54.68C61.6915 55.1334 60.8648 55.36 59.8781 55.36ZM60.9581 53.52C61.6515 53.52 62.2915 53.28 62.8781 52.8C63.4648 52.2934 63.9448 51.6267 64.3181 50.8C64.6915 49.9734 64.8782 49.04 64.8782 48V45.08C64.8782 44.5734 64.5981 44.4267 64.0381 44.64C62.4115 45.2267 61.1448 46.04 60.2381 47.08C59.3581 48.0934 58.9181 49.32 58.9181 50.76C58.9181 52.6 59.5981 53.52 60.9581 53.52Z" fill="black"/>
<path d="M47.3719 55C46.9719 55 46.7719 54.8534 46.7719 54.56C46.7719 54.32 46.9452 54.16 47.2919 54.08L47.7719 54C48.4385 53.8934 48.8652 53.7334 49.0519 53.52C49.2385 53.28 49.3319 52.88 49.3319 52.32V38.88C49.3319 38.4 49.2519 38.08 49.0919 37.92C48.9585 37.7334 48.7052 37.6134 48.3319 37.56L47.4919 37.44C47.1452 37.4134 46.9719 37.2667 46.9719 37C46.9719 36.7867 47.1852 36.64 47.6119 36.56C48.4385 36.4267 49.1052 36.2134 49.6119 35.92C50.1185 35.6267 50.6119 35.2667 51.0919 34.84C51.3319 34.6 51.5319 34.48 51.6919 34.48C51.9319 34.48 52.0519 34.64 52.0519 34.96V52.32C52.0519 52.88 52.1319 53.28 52.2919 53.52C52.4519 53.76 52.7585 53.9067 53.2119 53.96L54.2119 54.08C54.5052 54.1334 54.6519 54.28 54.6519 54.52C54.6519 54.84 54.4519 55 54.0519 55H47.3719Z" fill="black"/>
<path d="M39.5975 37.16C40.6908 35.2934 42.0108 34.36 43.5575 34.36C44.4375 34.36 45.0908 34.6267 45.5175 35.16C45.9441 35.6667 46.1575 36.24 46.1575 36.88C46.1575 37.3867 46.0241 37.8 45.7575 38.12C45.5175 38.44 45.1308 38.6 44.5975 38.6C44.1708 38.6 43.8508 38.5067 43.6375 38.32C43.4508 38.1067 43.2908 37.8667 43.1575 37.6C43.0508 37.3334 42.9175 37.1067 42.7575 36.92C42.5975 36.7067 42.3308 36.6 41.9575 36.6C41.4775 36.6 41.0241 36.8934 40.5975 37.48C40.1708 38.04 39.8108 38.8 39.5175 39.76C39.2508 40.72 39.1175 41.8134 39.1175 43.04V52.32C39.1175 52.88 39.1975 53.28 39.3575 53.52C39.5441 53.76 39.9175 53.9067 40.4775 53.96L41.5575 54.08C41.8508 54.1334 41.9975 54.28 41.9975 54.52C41.9975 54.84 41.7975 55 41.3975 55H34.6375C34.2375 55 34.0375 54.8534 34.0375 54.56C34.0375 54.32 34.2108 54.16 34.5575 54.08L35.0375 54C35.5975 53.8934 35.9575 53.7334 36.1175 53.52C36.3041 53.28 36.3975 52.88 36.3975 52.32V38.88C36.3975 38.4 36.3175 38.08 36.1575 37.92C36.0241 37.7334 35.7708 37.6134 35.3975 37.56L34.5575 37.44C34.2108 37.4134 34.0375 37.2667 34.0375 37C34.0375 36.7867 34.2508 36.64 34.6775 36.56C35.5041 36.4267 36.1308 36.2134 36.5575 35.92C37.0108 35.6267 37.4775 35.2667 37.9575 34.84C38.1975 34.6 38.3975 34.48 38.5575 34.48C38.7975 34.48 38.9175 34.64 38.9175 34.96V37.12C38.9175 37.3067 38.9975 37.4267 39.1575 37.48C39.3175 37.5067 39.4641 37.4 39.5975 37.16Z" fill="black"/>
<path d="M26.8987 55.36C25.6187 55.36 24.4721 54.9334 23.4587 54.08C22.4454 53.2267 21.6321 52.0267 21.0187 50.48C20.4321 48.9067 20.1387 47.0934 20.1387 45.04C20.1387 42.9334 20.4454 41.08 21.0587 39.48C21.6721 37.88 22.5121 36.6267 23.5787 35.72C24.6454 34.8134 25.8321 34.36 27.1387 34.36C28.7121 34.36 29.9787 35.0134 30.9387 36.32C31.9254 37.6 32.4187 39.6934 32.4187 42.6C32.4187 43.48 32.0854 43.92 31.4187 43.92H23.8187C23.2854 43.92 23.0187 44.2267 23.0187 44.84C23.0187 47.6667 23.4321 49.7867 24.2587 51.2C25.0854 52.6134 26.1387 53.32 27.4187 53.32C28.4321 53.32 29.2587 52.96 29.8987 52.24C30.5387 51.52 31.0587 50.3067 31.4587 48.6C31.5387 48.3067 31.7121 48.16 31.9787 48.16C32.2987 48.16 32.4187 48.4267 32.3387 48.96C31.9121 51.3334 31.2321 53 30.2987 53.96C29.3654 54.8934 28.2321 55.36 26.8987 55.36ZM23.6987 42.92H27.7387C29.0187 42.92 29.6587 42.2534 29.6587 40.92C29.6587 39.1867 29.4454 37.8267 29.0187 36.84C28.5921 35.8534 27.9521 35.36 27.0987 35.36C26.0587 35.36 25.1787 35.96 24.4587 37.16C23.7654 38.36 23.3121 40.0667 23.0987 42.28C23.0454 42.7067 23.2454 42.92 23.6987 42.92Z" fill="black"/>
<path d="M11.44 55.3601C9.4667 55.3601 7.73337 54.7467 6.24004 53.5201C4.77337 52.2934 3.6267 50.5734 2.80004 48.3601C2.00004 46.1201 1.60004 43.48 1.60004 40.44C1.60004 37.5067 2.04004 34.9467 2.92004 32.76C3.8267 30.5467 5.0267 28.84 6.52004 27.64C8.04004 26.4134 9.72004 25.8 11.56 25.8C12.6534 25.8 13.6134 25.9067 14.44 26.12C15.2667 26.3067 16 26.56 16.64 26.88C16.96 27.0667 17.12 27.3467 17.12 27.72L17.24 33.8C17.24 34.2534 17.08 34.48 16.76 34.48C16.4667 34.48 16.28 34.3067 16.2 33.96L15.8 32.48C15.24 30.4 14.5867 28.96 13.84 28.16C13.12 27.36 12.2534 26.96 11.24 26.96C9.37337 26.96 7.81337 28.12 6.56004 30.44C5.33337 32.7334 4.72004 36.0667 4.72004 40.44C4.72004 43.4267 5.0267 45.9467 5.64004 48C6.28004 50.0534 7.09337 51.6 8.08004 52.64C9.09337 53.68 10.16 54.2001 11.28 54.2001C12.48 54.2001 13.44 53.8267 14.16 53.0801C14.9067 52.3334 15.5334 50.8934 16.04 48.76L16.52 46.8C16.6 46.4 16.8134 46.2267 17.16 46.28C17.4534 46.3334 17.6 46.56 17.6 46.96L17.44 53.44C17.44 53.8134 17.2667 54.0934 16.92 54.28C16.28 54.6 15.52 54.8534 14.64 55.0401C13.7867 55.2534 12.72 55.3601 11.44 55.3601Z" fill="black"/>
<path d="M107.847 31.36C106.487 31.36 105.26 30.9067 104.167 30C103.1 29.0667 102.247 27.8 101.607 26.2C100.967 24.6 100.647 22.8134 100.647 20.84C100.647 18.8667 100.967 17.0934 101.607 15.52C102.247 13.9467 103.113 12.6934 104.207 11.76C105.3 10.8267 106.513 10.36 107.847 10.36C109.207 10.36 110.42 10.8267 111.487 11.76C112.58 12.6934 113.447 13.9467 114.087 15.52C114.727 17.0934 115.047 18.8667 115.047 20.84C115.047 22.8134 114.727 24.6 114.087 26.2C113.473 27.8 112.62 29.0667 111.527 30C110.433 30.9067 109.207 31.36 107.847 31.36ZM107.847 30.36C110.62 30.36 112.007 27.1867 112.007 20.84C112.007 14.52 110.62 11.36 107.847 11.36C105.073 11.36 103.687 14.52 103.687 20.84C103.687 27.1867 105.073 30.36 107.847 30.36Z" fill="black"/>
<path d="M88.6853 31.36C87.512 31.36 86.4587 30.96 85.5253 30.16C84.6187 29.3334 83.912 28.2 83.4053 26.76C82.8987 25.2934 82.6453 23.6 82.6453 21.68C82.6453 19.44 82.992 17.48 83.6853 15.8C84.3787 14.0934 85.3387 12.76 86.5653 11.8C87.792 10.84 89.1787 10.36 90.7253 10.36C91.0987 10.36 91.472 10.4 91.8453 10.48C92.2187 10.5334 92.5787 10.64 92.9253 10.8C93.352 11.0134 93.5653 10.92 93.5653 10.52V5.40002C93.5653 4.92002 93.4853 4.58669 93.3253 4.40002C93.192 4.21336 92.9387 4.10669 92.5653 4.08002L91.5253 3.96002C91.232 3.90669 91.0853 3.74669 91.0853 3.48002C91.0853 3.21336 91.232 3.05336 91.5253 3.00002C92.3787 2.84002 93.0587 2.65336 93.5653 2.44002C94.0987 2.22669 94.5387 2.01336 94.8853 1.80002C95.312 1.53336 95.632 1.40002 95.8453 1.40002C96.1387 1.40002 96.2853 1.61336 96.2853 2.04002V27.2C96.2853 28.32 96.5653 28.88 97.1253 28.88C97.472 28.88 97.792 28.6534 98.0853 28.2C98.3787 27.72 98.5253 26.92 98.5253 25.8C98.5253 25.3734 98.6987 25.16 99.0453 25.16C99.3653 25.16 99.5253 25.3867 99.5253 25.84C99.5253 27.7867 99.192 29.2 98.5253 30.08C97.8587 30.9334 97.0987 31.36 96.2453 31.36C95.472 31.36 94.8853 31.1067 94.4853 30.6C94.0853 30.0667 93.8187 29.44 93.6853 28.72C93.6587 28.5067 93.5653 28.4 93.4053 28.4C93.2453 28.3734 93.0987 28.4667 92.9653 28.68C92.2187 29.72 91.5387 30.4267 90.9253 30.8C90.312 31.1734 89.5653 31.36 88.6853 31.36ZM89.5653 29.52C90.2587 29.52 90.8987 29.2934 91.4853 28.84C92.0987 28.36 92.592 27.72 92.9653 26.92C93.3653 26.12 93.5653 25.2267 93.5653 24.24V15.24C93.5653 14.04 93.2853 13.0934 92.7253 12.4C92.192 11.7067 91.4853 11.36 90.6053 11.36C89.112 11.36 87.8987 12.24 86.9653 14C86.0587 15.7334 85.6053 18.1067 85.6053 21.12C85.6053 23.8667 85.952 25.96 86.6453 27.4C87.3653 28.8134 88.3387 29.52 89.5653 29.52Z" fill="black"/>
<path d="M74.8709 13.16C75.9643 11.2934 77.2843 10.36 78.8309 10.36C79.7109 10.36 80.3642 10.6267 80.7909 11.16C81.2176 11.6667 81.4309 12.24 81.4309 12.88C81.4309 13.3867 81.2976 13.8 81.0309 14.12C80.7909 14.44 80.4043 14.6 79.8709 14.6C79.4443 14.6 79.1243 14.5067 78.9109 14.32C78.7243 14.1067 78.5642 13.8667 78.4309 13.6C78.3242 13.3334 78.1909 13.1067 78.0309 12.92C77.8709 12.7067 77.6043 12.6 77.2309 12.6C76.7509 12.6 76.2976 12.8934 75.8709 13.48C75.4443 14.04 75.0842 14.8 74.7909 15.76C74.5242 16.72 74.3909 17.8134 74.3909 19.04V28.32C74.3909 28.88 74.4709 29.28 74.6309 29.52C74.8176 29.76 75.1909 29.9067 75.7509 29.96L76.8309 30.08C77.1243 30.1334 77.2709 30.28 77.2709 30.52C77.2709 30.84 77.0709 31 76.6709 31H69.9109C69.5109 31 69.3109 30.8534 69.3109 30.56C69.3109 30.32 69.4843 30.16 69.8309 30.08L70.3109 30C70.8709 29.8934 71.2309 29.7334 71.3909 29.52C71.5776 29.28 71.6709 28.88 71.6709 28.32V14.88C71.6709 14.4 71.5909 14.08 71.4309 13.92C71.2976 13.7334 71.0442 13.6134 70.6709 13.56L69.8309 13.44C69.4843 13.4134 69.3109 13.2667 69.3109 13C69.3109 12.7867 69.5242 12.64 69.9509 12.56C70.7776 12.4267 71.4043 12.2134 71.8309 11.92C72.2843 11.6267 72.7509 11.2667 73.2309 10.84C73.4709 10.6 73.6709 10.48 73.8309 10.48C74.0709 10.48 74.1909 10.64 74.1909 10.96V13.12C74.1909 13.3067 74.2709 13.4267 74.4309 13.48C74.5909 13.5067 74.7376 13.4 74.8709 13.16Z" fill="black"/>
<path d="M57.5344 31.36C56.4144 31.36 55.4944 31.0134 54.7744 30.32C54.0544 29.6 53.6944 28.6534 53.6944 27.48C53.6944 26.3334 54.0544 25.2534 54.7744 24.24C55.4944 23.2 56.4811 22.2667 57.7344 21.44C58.9877 20.6134 60.4144 19.9467 62.0144 19.44C62.3611 19.3334 62.5344 19.1067 62.5344 18.76V15.12C62.5344 13.84 62.3344 12.9334 61.9344 12.4C61.5344 11.84 60.9877 11.56 60.2944 11.56C59.6277 11.56 59.0144 11.8667 58.4544 12.48C57.9211 13.0667 57.5344 14.0667 57.2944 15.48C57.1611 16.3334 56.8677 16.96 56.4144 17.36C55.9877 17.7334 55.5477 17.92 55.0944 17.92C54.3477 17.92 53.9744 17.5467 53.9744 16.8C53.9744 16.0267 54.1877 15.2667 54.6144 14.52C55.0677 13.7467 55.6544 13.0534 56.3744 12.44C57.0944 11.8 57.8811 11.2934 58.7344 10.92C59.5877 10.5467 60.4411 10.36 61.2944 10.36C63.9344 10.36 65.2544 11.8934 65.2544 14.96V27.2C65.2544 28.32 65.5344 28.88 66.0944 28.88C66.4411 28.88 66.7611 28.6534 67.0544 28.2C67.3477 27.72 67.4944 26.92 67.4944 25.8C67.4944 25.3734 67.6677 25.16 68.0144 25.16C68.3344 25.16 68.4944 25.3867 68.4944 25.84C68.4944 27.7867 68.1477 29.2 67.4544 30.08C66.7877 30.9334 66.0277 31.36 65.1744 31.36C64.5344 31.36 64.0277 31.1067 63.6544 30.6C63.2811 30.0667 63.0277 29.44 62.8944 28.72C62.8677 28.4534 62.7477 28.32 62.5344 28.32C62.3477 28.2934 62.1611 28.4134 61.9744 28.68C61.3344 29.56 60.6811 30.2267 60.0144 30.68C59.3477 31.1334 58.5211 31.36 57.5344 31.36ZM58.6144 29.52C59.3077 29.52 59.9477 29.28 60.5344 28.8C61.1211 28.2934 61.6011 27.6267 61.9744 26.8C62.3477 25.9734 62.5344 25.04 62.5344 24V21.08C62.5344 20.5734 62.2544 20.4267 61.6944 20.64C60.0677 21.2267 58.8011 22.04 57.8944 23.08C57.0144 24.0934 56.5744 25.32 56.5744 26.76C56.5744 28.6 57.2544 29.52 58.6144 29.52Z" fill="black"/>
<path d="M44.5262 31.36C43.1662 31.36 41.9396 30.9067 40.8462 30C39.7796 29.0667 38.9262 27.8 38.2862 26.2C37.6462 24.6 37.3262 22.8134 37.3262 20.84C37.3262 18.8667 37.6462 17.0934 38.2862 15.52C38.9262 13.9467 39.7929 12.6934 40.8862 11.76C41.9796 10.8267 43.1929 10.36 44.5262 10.36C45.8862 10.36 47.0996 10.8267 48.1662 11.76C49.2596 12.6934 50.1262 13.9467 50.7662 15.52C51.4062 17.0934 51.7262 18.8667 51.7262 20.84C51.7262 22.8134 51.4062 24.6 50.7662 26.2C50.1529 27.8 49.2996 29.0667 48.2062 30C47.1129 30.9067 45.8862 31.36 44.5262 31.36ZM44.5262 30.36C47.2996 30.36 48.6862 27.1867 48.6862 20.84C48.6862 14.52 47.2996 11.36 44.5262 11.36C41.7529 11.36 40.3662 14.52 40.3662 20.84C40.3662 27.1867 41.7529 30.36 44.5262 30.36Z" fill="black"/>
<path d="M25.365 31.36C24.1917 31.36 23.1383 30.96 22.205 30.16C21.2983 29.3334 20.5917 28.2 20.085 26.76C19.5783 25.2934 19.325 23.6 19.325 21.68C19.325 19.44 19.6717 17.48 20.365 15.8C21.0583 14.0934 22.0183 12.76 23.245 11.8C24.4717 10.84 25.8583 10.36 27.405 10.36C27.7783 10.36 28.1517 10.4 28.525 10.48C28.8983 10.5334 29.2583 10.64 29.605 10.8C30.0317 11.0134 30.245 10.92 30.245 10.52V5.40002C30.245 4.92002 30.165 4.58669 30.005 4.40002C29.8717 4.21336 29.6183 4.10669 29.245 4.08002L28.205 3.96002C27.9117 3.90669 27.765 3.74669 27.765 3.48002C27.765 3.21336 27.9117 3.05336 28.205 3.00002C29.0583 2.84002 29.7383 2.65336 30.245 2.44002C30.7783 2.22669 31.2183 2.01336 31.565 1.80002C31.9917 1.53336 32.3117 1.40002 32.525 1.40002C32.8183 1.40002 32.965 1.61336 32.965 2.04002V27.2C32.965 28.32 33.245 28.88 33.805 28.88C34.1517 28.88 34.4717 28.6534 34.765 28.2C35.0583 27.72 35.205 26.92 35.205 25.8C35.205 25.3734 35.3783 25.16 35.725 25.16C36.045 25.16 36.205 25.3867 36.205 25.84C36.205 27.7867 35.8717 29.2 35.205 30.08C34.5383 30.9334 33.7783 31.36 32.925 31.36C32.1517 31.36 31.565 31.1067 31.165 30.6C30.765 30.0667 30.4983 29.44 30.365 28.72C30.3383 28.5067 30.245 28.4 30.085 28.4C29.925 28.3734 29.7783 28.4667 29.645 28.68C28.8983 29.72 28.2183 30.4267 27.605 30.8C26.9917 31.1734 26.245 31.36 25.365 31.36ZM26.245 29.52C26.9383 29.52 27.5783 29.2934 28.165 28.84C28.7783 28.36 29.2717 27.72 29.645 26.92C30.045 26.12 30.245 25.2267 30.245 24.24V15.24C30.245 14.04 29.965 13.0934 29.405 12.4C28.8717 11.7067 28.165 11.36 27.285 11.36C25.7917 11.36 24.5783 12.24 23.645 14C22.7383 15.7334 22.285 18.1067 22.285 21.12C22.285 23.8667 22.6317 25.96 23.325 27.4C24.045 28.8134 25.0183 29.52 26.245 29.52Z" fill="black"/>
<path d="M1.36001 31C0.96001 31 0.76001 30.8533 0.76001 30.56C0.76001 30.32 0.933343 30.16 1.28001 30.08L2.20001 29.92C2.76001 29.8133 3.12001 29.6667 3.28001 29.48C3.46668 29.2933 3.56001 28.92 3.56001 28.36V4.84001C3.56001 4.28001 3.46668 3.90668 3.28001 3.72001C3.12001 3.53335 2.76001 3.38668 2.20001 3.28001L1.28001 3.12001C0.933343 3.04001 0.76001 2.88001 0.76001 2.64001C0.76001 2.34668 0.96001 2.20001 1.36001 2.20001H14.8C15.4133 2.20001 15.7467 2.50668 15.8 3.12001L16.12 9.76001C16.1733 10.2133 16 10.44 15.6 10.44C15.28 10.44 15.0933 10.2667 15.04 9.92001L14.8 8.44001C14.5067 6.62668 13.9067 5.30668 13 4.48001C12.0933 3.62668 10.84 3.20001 9.24001 3.20001C8.17334 3.20001 7.42668 3.36001 7.00001 3.68001C6.60001 3.97334 6.40001 4.50668 6.40001 5.28001V14.92C6.40001 15.2933 6.58668 15.48 6.96001 15.48H8.96001C10.1333 15.48 10.8533 14.8533 11.12 13.6L11.52 11.6C11.6267 11.2 11.8533 11.0267 12.2 11.08C12.4933 11.1333 12.64 11.36 12.64 11.76V20.76C12.64 21.16 12.4933 21.3867 12.2 21.44C11.8533 21.4933 11.6267 21.32 11.52 20.92L11.12 18.96C10.9333 18.0267 10.6667 17.4133 10.32 17.12C10 16.8267 9.53334 16.68 8.92001 16.68H6.96001C6.58668 16.68 6.40001 16.8667 6.40001 17.24V27.28C6.40001 28.24 6.64001 28.9333 7.12001 29.36C7.62668 29.7867 8.53334 30 9.84001 30C11.1733 30 12.3067 29.6667 13.24 29C14.2 28.3067 14.8667 27.0267 15.24 25.16L15.72 22.8C15.8 22.4533 16 22.28 16.32 22.28C16.6933 22.28 16.8533 22.5067 16.8 22.96L16.4 30.08C16.3467 30.6933 16.0133 31 15.4 31H1.36001Z" fill="black"/>
</svg>
